<svg width="50" height="50" viewBox="0 0 50 50" fill="none" xmlns="http://www.w3.org/2000/svg">
<rect width="50" height="50" fill="#FCFCFC"/>
<g clip-path="url(#clip0_1_568)">
<path d="M26.6163 26.6161C26.6163 26.6161 26.7279 26.5045 26.9511 26.2813C27.1743 26.0581 27.2859 25.631 27.2859 25C27.2859 24.3691 27.0627 23.8304 26.6163 23.384C26.1699 22.9375 25.6312 22.7143 25.0002 22.7143C24.3693 22.7143 23.8306 22.9375 23.3841 23.384C22.9377 23.8304 22.7145 24.3691 22.7145 25C22.7145 25.631 22.9377 26.1697 23.3841 26.6161C23.8306 27.0625 24.3693 27.2857 25.0002 27.2857C25.6312 27.2857 26.1699 27.0625 26.6163 26.6161ZM27.4913 22.509C27.4913 22.509 27.6624 22.6801 28.0047 23.0224C28.3469 23.3646 28.5181 24.0238 28.5181 25C28.5181 25.9762 28.1758 26.8066 27.4913 27.4911C26.8068 28.1756 25.9764 28.5179 25.0002 28.5179C24.024 28.5179 23.1937 28.1756 22.5091 27.4911C21.8246 26.8066 21.4824 25.9762 21.4824 25C21.4824 24.0238 21.8246 23.1935 22.5091 22.509C23.1937 21.8244 24.024 21.4822 25.0002 21.4822C25.9764 21.4822 26.8068 21.8244 27.4913 22.509ZM29.2413 20.759C29.2413 20.759 29.2815 20.7991 29.3618 20.8795C29.4422 20.9599 29.4824 21.1131 29.4824 21.3393C29.4824 21.5655 29.402 21.759 29.2413 21.9197C29.0806 22.0804 28.8871 22.1607 28.6609 22.1607C28.4347 22.1607 28.2413 22.0804 28.0806 21.9197C27.9199 21.759 27.8395 21.5655 27.8395 21.3393C27.8395 21.1131 27.9199 20.9197 28.0806 20.759C28.2413 20.5982 28.4347 20.5179 28.6609 20.5179C28.8871 20.5179 29.0806 20.5982 29.2413 20.759ZM25.6832 19.3706C25.6832 19.3706 25.5798 19.3713 25.373 19.3728C25.1661 19.3743 25.0419 19.375 25.0002 19.375C24.9585 19.375 24.7309 19.3735 24.3172 19.3706C23.9035 19.3676 23.5895 19.3676 23.3752 19.3706C23.1609 19.3735 22.8737 19.3825 22.5136 19.3974C22.1535 19.4122 21.8469 19.442 21.594 19.4866C21.341 19.5313 21.1282 19.5863 20.9556 19.6518C20.6579 19.7709 20.396 19.9435 20.1699 20.1697C19.9437 20.3959 19.771 20.6578 19.652 20.9554C19.5865 21.128 19.5315 21.3408 19.4868 21.5938C19.4422 21.8468 19.4124 22.1533 19.3975 22.5134C19.3826 22.8735 19.3737 23.1607 19.3707 23.375C19.3678 23.5893 19.3678 23.9033 19.3707 24.317C19.3737 24.7307 19.3752 24.9584 19.3752 25C19.3752 25.0417 19.3737 25.2694 19.3707 25.6831C19.3678 26.0968 19.3678 26.4107 19.3707 26.625C19.3737 26.8393 19.3826 27.1265 19.3975 27.4866C19.4124 27.8468 19.4422 28.1533 19.4868 28.4063C19.5315 28.6593 19.5865 28.8721 19.652 29.0447C19.771 29.3423 19.9437 29.6042 20.1699 29.8304C20.396 30.0566 20.6579 30.2292 20.9556 30.3482C21.1282 30.4137 21.341 30.4688 21.594 30.5134C21.8469 30.5581 22.1535 30.5878 22.5136 30.6027C22.8737 30.6176 23.1609 30.6265 23.3752 30.6295C23.5895 30.6325 23.9035 30.6325 24.3172 30.6295C24.7309 30.6265 24.9585 30.625 25.0002 30.625C25.0419 30.625 25.2696 30.6265 25.6832 30.6295C26.0969 30.6325 26.4109 30.6325 26.6252 30.6295C26.8395 30.6265 27.1267 30.6176 27.4868 30.6027C27.8469 30.5878 28.1535 30.5581 28.4065 30.5134C28.6594 30.4688 28.8722 30.4137 29.0449 30.3482C29.3425 30.2292 29.6044 30.0566 29.8306 29.8304C30.0568 29.6042 30.2294 29.3423 30.3484 29.0447C30.4139 28.8721 30.469 28.6593 30.5136 28.4063C30.5582 28.1533 30.588 27.8468 30.6029 27.4866C30.6178 27.1265 30.6267 26.8393 30.6297 26.625C30.6327 26.4107 30.6327 26.0968 30.6297 25.6831C30.6267 25.2694 30.6252 25.0417 30.6252 25C30.6252 24.9584 30.6267 24.7307 30.6297 24.317C30.6327 23.9033 30.6327 23.5893 30.6297 23.375C30.6267 23.1607 30.6178 22.8735 30.6029 22.5134C30.588 22.1533 30.5582 21.8468 30.5136 21.5938C30.469 21.3408 30.4139 21.128 30.3484 20.9554C30.2294 20.6578 30.0568 20.3959 29.8306 20.1697C29.6044 19.9435 29.3425 19.7709 29.0449 19.6518C28.8722 19.5863 28.6594 19.5313 28.4065 19.4866C28.1535 19.442 27.8469 19.4122 27.4868 19.3974C27.1267 19.3825 26.8395 19.3735 26.6252 19.3706C26.4109 19.3676 26.0969 19.3676 25.6832 19.3706ZM31.8127 22.1697C31.8425 22.6935 31.8574 23.6369 31.8574 25C31.8574 26.3631 31.8425 27.3066 31.8127 27.8304C31.7532 29.0685 31.3841 30.0268 30.7056 30.7054C30.027 31.384 29.0687 31.753 27.8306 31.8125C27.3068 31.8423 26.3633 31.8572 25.0002 31.8572C23.6371 31.8572 22.6937 31.8423 22.1699 31.8125C20.9318 31.753 19.9734 31.384 19.2949 30.7054C18.6163 30.0268 18.2472 29.0685 18.1877 27.8304C18.1579 27.3066 18.1431 26.3631 18.1431 25C18.1431 23.6369 18.1579 22.6935 18.1877 22.1697C18.2472 20.9316 18.6163 19.9732 19.2949 19.2947C19.9734 18.6161 20.9318 18.2471 22.1699 18.1875C22.6937 18.1578 23.6371 18.1429 25.0002 18.1429C26.3633 18.1429 27.3068 18.1578 27.8306 18.1875C29.0687 18.2471 30.027 18.6161 30.7056 19.2947C31.3841 19.9732 31.7532 20.9316 31.8127 22.1697Z" fill="#848484"/>
</g>
<defs>
<clipPath id="clip0_1_568">
<rect width="13.72" height="16" fill="white" transform="matrix(1 0 0 -1 18.1401 33)"/>
</clipPath>
</defs>
</svg>
